<svg xmlns="http://www.w3.org/2000/svg" xmlns:xlink="http://www.w3.org/1999/xlink" width="500" zoomAndPan="magnify" viewBox="0 0 375 374.999991" height="500" preserveAspectRatio="xMidYMid meet" version="1.0"><defs><clipPath id="2e2332dd9d"><path d="M 0 23.535156 L 120.089844 23.535156 L 120.089844 360 L 0 360 Z M 0 23.535156 " clip-rule="nonzero"/></clipPath><clipPath id="718f8351ff"><path d="M 2.25 23.535156 L 117.839844 23.535156 C 119.082031 23.535156 120.089844 24.542969 120.089844 25.785156 L 120.089844 357.792969 C 120.089844 359.035156 119.082031 360.042969 117.839844 360.042969 L 2.25 360.042969 C 1.007812 360.042969 0 359.035156 0 357.792969 L 0 25.785156 C 0 24.542969 1.007812 23.535156 2.25 23.535156 Z M 2.25 23.535156 " clip-rule="nonzero"/></clipPath><clipPath id="5a3fdd9fff"><path d="M 120.089844 23.179688 L 222.785156 23.179688 L 222.785156 359.746094 L 120.089844 359.746094 Z M 120.089844 23.179688 " clip-rule="nonzero"/></clipPath><clipPath id="5ece3ff538"><path d="M 122.339844 23.179688 L 220.535156 23.179688 C 221.777344 23.179688 222.785156 24.1875 222.785156 25.429688 L 222.785156 357.4375 C 222.785156 358.679688 221.777344 359.6875 220.535156 359.6875 L 122.339844 359.6875 C 121.09375 359.6875 120.089844 358.679688 120.089844 357.4375 L 120.089844 25.429688 C 120.089844 24.1875 121.09375 23.179688 122.339844 23.179688 Z M 122.339844 23.179688 " clip-rule="nonzero"/></clipPath><clipPath id="8c0aeca4d8"><path d="M 223 18 L 375 18 L 375 365 L 223 365 Z M 223 18 " clip-rule="nonzero"/></clipPath><clipPath id="33ec3692a2"><path d="M 222.785156 35.765625 L 306.824219 18.371094 L 375.03125 347.96875 L 290.992188 365.359375 Z M 222.785156 35.765625 " clip-rule="nonzero"/></clipPath><clipPath id="85547b2ae9"><path d="M 224.988281 35.308594 L 304.621094 18.828125 C 305.835938 18.578125 307.027344 19.359375 307.28125 20.574219 L 374.542969 345.613281 C 374.796875 346.828125 374.015625 348.019531 372.796875 348.273438 L 293.164062 364.753906 C 291.945312 365.003906 290.753906 364.222656 290.503906 363.003906 L 223.238281 37.96875 C 222.988281 36.75 223.769531 35.558594 224.988281 35.308594 Z M 224.988281 35.308594 " clip-rule="nonzero"/></clipPath></defs><g clip-path="url(#2e2332dd9d)"><g clip-path="url(#718f8351ff)"><path fill="#ef2346" d="M 0 23.535156 L 120.089844 23.535156 L 120.089844 359.878906 L 0 359.878906 Z M 0 23.535156 " fill-opacity="1" fill-rule="nonzero"/></g></g><g clip-path="url(#5a3fdd9fff)"><g clip-path="url(#5ece3ff538)"><path fill="#7ed957" d="M 120.089844 23.179688 L 222.785156 23.179688 L 222.785156 359.746094 L 120.089844 359.746094 Z M 120.089844 23.179688 " fill-opacity="1" fill-rule="nonzero"/></g></g><g clip-path="url(#8c0aeca4d8)"><g clip-path="url(#33ec3692a2)"><g clip-path="url(#85547b2ae9)"><path fill="#faba26" d="M 222.785156 35.765625 L 306.824219 18.371094 L 375.03125 347.96875 L 290.992188 365.359375 Z M 222.785156 35.765625 " fill-opacity="1" fill-rule="nonzero"/></g></g></g></svg>